# xmcd
#
# Track frame offsets:
#	150
#	14384
#	31181
#	54825
#	75764
#	100222
#	124391
#	139212
#	150334
#	166032
#	178762
#	204915
#
# Disc length: 3219 seconds
#
# Revision: 2
# Processed by: cddbd v1.5.1PL0 Copyright (c) Steve Scherf et al.
# Submitted via: EasyCDDAExtractor 7.0.6.1
#
DISCID=850c910c
DTITLE=Various Artist - Legends of the Blues Volume 1
DYEAR=1999
DGENRE=Blues
TTITLE0=Downchild Blues Band - Good Times Guaranteed
TTITLE1=Big John Dickerson - Red Beans
TTITLE2=Smokey Wilson - Too Drunk to Drive
TTITLE3=Big Time Sarah - the Thrill is Gone
TTITLE4=Long John Hunter - Ole Red
TTITLE5=Percy Strother - Got My Mojo Workin'
TTITLE6=Barkin' Bill - Down the Line
TTITLE7=Don't Lie - The BluzBlasters
TTITLE8=Magic Slim - Pretty Girls Everywhere
TTITLE9=Luther Allison - You Don't Know
TTITLE10=Junior Wells - Oh Pretty Woman
TTITLE11=Big Walter Smith - Sweet Home Chicago
EXTD=
EXTT0=
EXTT1=
EXTT2=
EXTT3=
EXTT4=
EXTT5=
EXTT6=
EXTT7=
EXTT8=
EXTT9=
EXTT10=
EXTT11=
PLAYORDER=
